<?xml version="1.0" standalone="no"?><!DOCTYPE svg PUBLIC "-//W3C//DTD SVG 1.1//EN" "http://www.w3.org/Graphics/SVG/1.1/DTD/svg11.dtd"><svg t="1649137395816" class="icon" viewBox="0 0 1052 1024" version="1.1" xmlns="http://www.w3.org/2000/svg" p-id="4753" xmlns:xlink="http://www.w3.org/1999/xlink" width="205.46875" height="200"><defs><style type="text/css"></style></defs><path d="M25.624055 894.840567V182.909223c0-58.556439 47.912535-106.468973 106.468973-106.468973H712.47872c58.556439 0 106.464697 47.912535 106.464697 106.468973v92.994107" fill="#E3BD84" p-id="4754"></path><path d="M25.624055 894.840567V182.909223c0-58.556439 47.912535-106.468973 106.468973-106.468973H712.47872c58.556439 0 106.464697 47.912535 106.464697 106.468973v92.994107" fill="#E3BD84" p-id="4755"></path><path d="M708.202343 60.844301H127.81665c-58.556439 0-106.468973 47.912535-106.468973 106.468973v51.316531c0-58.556439 47.912535-106.468973 106.468973-106.468973H708.202343c58.556439 0 106.464697 47.912535 106.464697 106.468973v-51.316531c0.004276-58.560715-47.903982-106.468973-106.464697-106.468973z" fill="#FFFFFF" opacity=".15" p-id="4756"></path><path d="M19.243699 886.322023h-4.276377V174.390679c0-59.886392 48.72077-108.607162 108.602885-108.607162h580.385693c59.886392 0 108.607162 48.72077 108.607162 108.607162v92.994107h-4.276378V174.390679c0-57.530108-46.800677-104.330784-104.330784-104.330785H123.574484c-57.525832 0-104.326508 46.804953-104.326508 104.330785v711.931344z" fill="#6E6E96" p-id="4757"></path><path d="M34.211021 886.322023h-34.211021V174.390679c0-68.139801 55.434683-123.574484 123.570207-123.574484h580.385693c68.144077 0 123.574484 55.434683 123.574484 123.574484v92.994107h-34.211021V174.390679c0-49.276699-40.09104-89.363463-89.363463-89.363463H123.574484c-49.272423 0-89.359186 40.09104-89.359187 89.363463v711.931344z" fill="#6E6E96" p-id="4758"></path><path d="M806.174154 217.787359H303.810971c-58.556439 0-120.422793 45.838492-137.468435 101.854762L13.675856 821.256938c-14.475538 47.561872 7.830047 87.759821 50.722114 98.818533-3.070439-13.731448-2.471746-29.216212 2.510234-45.581909l152.666681-501.614817c17.045641-56.020547 78.911996-101.859038 137.468434-101.859038H806.174154V217.787359z" fill="#966E6E" opacity=".15" p-id="4759"></path><path d="M187.63462 377.758092c17.041365-56.020547 78.90772-101.854762 137.468435-101.854762h641.341179c58.556439 0 90.731904 45.248351 71.501033 100.55902L862.558193 880.677204c-19.239423 55.306392-82.889027 100.559019-141.44119 100.55902H110.437452c-58.552162 0-92.51943-45.842768-75.465236-101.850486L187.63462 377.758092z" fill="#FFE494" p-id="4760"></path><path d="M174.805487 411.969113c17.041365-56.020547 78.90772-101.854762 137.468435-101.854762h641.341179c35.01498 0 60.583442 16.190366 71.377019 41.023291l0.115462-0.337834c19.23087-55.310668-12.936042-100.559019-71.501034-100.55902H312.278198c-58.552162 0-120.422793 45.838492-137.468434 101.854762L22.143083 853.710367c-6.388908 20.988461-5.614884 40.548612 0.932251 56.8074L174.805487 411.969113z" fill="#FFFFFF" opacity=".34" p-id="4761"></path><path d="M858.303197 821.102988c-19.239423 55.310668-82.893304 100.563296-141.445466 100.563296H106.17818c-41.497968 0-70.6201-23.045399-78.005404-56.396868l-1.719104 5.640542c-17.049918 56.01627 16.908797 101.850485 75.469512 101.850486h610.679551c58.552162 0 122.206043-45.252628 141.445466-100.55902l175.378522-504.214854c6.149431-17.699927 7.026088-34.356418 3.472419-48.840509L858.303197 821.102988z" fill="#966E6E" opacity=".15" p-id="4762"></path><path d="M708.343463 989.82319H97.659635c-33.877463 0-62.229847-13.085715-79.835693-36.845269-17.60157-23.759554-21.865119-54.686317-11.999516-87.092707l152.670957-501.619093c19.123961-62.849922 88.131866-113.978292 153.829856-113.978292h641.349731c34.010031 0 62.016028 13.042952 78.856403 36.729807s19.962131 54.425458 8.792233 86.549606l-175.378522 504.219131c-21.493074 61.772275-92.190148 112.036817-157.601621 112.036817zM312.329515 284.494573c-50.841853 0-106.302195 41.091712-121.102738 89.726955L38.555821 875.849174c-6.628385 21.775315-4.229337 41.934159 6.760953 56.76036 10.99029 14.834754 29.579704 23.002635 52.347138 23.002635h610.683828c51.115542 0 108.4917-40.78809 125.289311-89.072669l175.378522-504.214854c7.432344-21.373335 5.884296-41.074607-4.361905-55.486s-28.348107-22.344073-50.974421-22.344073H312.329515z" fill="#6E6E96" p-id="4763"></path></svg>