<?xml version="1.0" standalone="no"?><!DOCTYPE svg PUBLIC "-//W3C//DTD SVG 1.1//EN" "http://www.w3.org/Graphics/SVG/1.1/DTD/svg11.dtd"><svg t="1648567050166" class="icon" viewBox="0 0 1024 1024" version="1.1" xmlns="http://www.w3.org/2000/svg" p-id="2465" xmlns:xlink="http://www.w3.org/1999/xlink" width="200" height="200"><defs><style type="text/css"></style></defs><path d="M950.144 827.093333H73.856a73.813333 73.813333 0 0 1-73.813333-73.813333V270.72a73.813333 73.813333 0 0 1 73.813333-73.813333h876.288a73.813333 73.813333 0 0 1 73.813333 73.813333v482.474667a73.813333 73.813333 0 0 1-73.813333 73.856z m-704-147.712v-192l98.474667 123.093334 98.432-123.093334v192h98.474666V344.661333h-98.474666l-98.432 123.093334-98.474667-123.093334H147.669333v334.805334zM905.856 512h-98.474667V344.618667h-98.432V512h-98.474666l147.669333 172.330667z" p-id="2466"></path></svg>